<?xml version="1.0" standalone="no"?>
<!DOCTYPE svg PUBLIC "-//W3C//DTD SVG 20010904//EN"
 "http://www.w3.org/TR/2001/REC-SVG-20010904/DTD/svg10.dtd">
<svg version="1.0" xmlns="http://www.w3.org/2000/svg"
 width="200.000000pt" height="200.000000pt" viewBox="0 0 200.000000 200.000000"
 preserveAspectRatio="xMidYMid meet">
<metadata>
Created by potrace 1.14, written by Peter Selinger 2001-2017
</metadata>
<g transform="translate(0.000000,200.000000) scale(0.100000,-0.100000)"
fill="#000000" stroke="none">
<path d="M671 1893 c-35 -21 -101 -74 -147 -118 l-84 -80 0 -237 c0 -220 5
-261 26 -227 13 22 185 128 240 149 49 18 64 19 112 10 80 -14 92 -13 92 10 0
23 -21 33 -109 51 l-60 13 -93 -47 c-51 -25 -118 -65 -148 -88 -30 -23 -46
-32 -35 -19 29 33 158 118 231 152 l64 30 77 -16 c56 -11 80 -12 90 -4 28 23
11 36 -79 60 -92 25 -93 25 -139 7 -57 -22 -138 -70 -199 -118 -26 -20 -37
-25 -25 -12 26 30 169 125 227 151 40 17 53 18 104 9 33 -5 83 -17 111 -26 43
-13 56 -13 68 -3 8 7 15 15 15 19 0 8 -123 54 -201 76 -53 15 -59 14 -101 -4
-25 -11 -65 -31 -89 -46 -41 -24 -42 -24 -16 -2 16 13 57 38 92 56 l64 31 77
-15 c42 -9 108 -28 146 -42 64 -22 72 -23 86 -9 14 14 9 18 -54 47 -38 17
-111 45 -162 62 l-93 31 -49 -21 c-64 -27 -64 -21 -2 11 48 24 50 25 122 10
78 -17 192 -55 253 -86 25 -12 43 -16 53 -10 14 8 12 12 -12 29 -76 53 -316
153 -367 153 -12 0 -46 -14 -75 -30 -30 -16 -49 -24 -44 -17 6 7 35 25 65 42
l55 29 79 -18 c100 -24 195 -63 286 -118 88 -53 105 -60 112 -48 7 11 -105 95
-191 143 -89 49 -231 108 -273 114 -29 3 -49 -3 -100 -34z m-101 -337 c0 -2
-8 -10 -17 -17 -16 -13 -17 -12 -4 4 13 16 21 21 21 13z"/>
<path d="M1142 1629 c-30 -17 -89 -64 -132 -105 l-79 -75 1 -195 c1 -129 4
-194 11 -194 7 0 6 -5 -1 -12 -12 -12 -17 -58 -7 -58 3 0 31 18 63 40 33 22
89 54 126 71 59 28 75 31 124 26 91 -10 229 -54 336 -107 55 -28 101 -48 103
-46 7 7 -109 78 -190 116 -89 42 -244 90 -292 91 -36 1 -121 -36 -193 -84 -29
-20 -50 -31 -46 -26 10 17 138 97 190 119 45 20 50 20 132 5 120 -23 280 -87
365 -147 43 -31 43 -14 0 21 -83 69 -371 191 -449 191 -26 0 -89 -27 -154 -65
-31 -18 -37 -20 -20 -6 14 11 56 37 93 57 64 33 73 36 125 29 117 -14 293 -84
401 -158 24 -16 42 -24 39 -16 -9 28 -190 138 -292 178 -154 60 -194 67 -250
42 -58 -25 -60 -19 -3 10 53 28 100 26 211 -6 94 -27 180 -67 266 -124 84 -55
89 -56 36 -6 -85 79 -265 173 -403 209 -49 13 -61 13 -92 1 -32 -13 -34 -13
-17 0 34 26 80 28 165 6 99 -24 223 -82 314 -144 37 -26 67 -43 67 -38 0 11
-109 98 -160 128 -110 66 -276 133 -329 133 -18 0 -22 3 -13 9 16 10 96 -4
177 -31 74 -24 193 -87 260 -137 76 -57 84 -58 35 -7 -83 86 -258 187 -403
232 -54 17 -59 17 -92 1 -42 -20 -47 -14 -5 8 39 20 75 19 156 -6 97 -30 227
-99 307 -165 38 -30 71 -54 73 -51 10 9 -147 146 -218 191 -66 41 -198 101
-263 120 -12 3 -40 -6 -73 -25z m-52 -333 c0 -2 -12 -11 -27 -20 l-28 -17 24
20 c23 21 31 25 31 17z m-100 -140 c0 -2 -8 -10 -17 -17 -16 -13 -17 -12 -4 4
13 16 21 21 21 13z"/>
<path d="M633 1321 c-136 -68 -193 -113 -193 -151 0 -33 11 -38 30 -15 19 23
153 102 223 131 58 25 66 25 129 15 89 -15 90 -14 86 12 -2 18 -14 25 -68 39
-36 9 -75 17 -87 17 -11 1 -66 -21 -120 -48z"/>
<path d="M689 1256 c-65 -23 -129 -56 -206 -108 -34 -23 -43 -35 -43 -58 0
-17 2 -30 5 -30 3 0 27 16 53 35 26 18 88 53 137 77 94 45 125 50 223 35 52
-8 53 -7 50 14 -2 18 -13 25 -48 34 -94 24 -105 24 -171 1z"/>
<path d="M695 1171 c-63 -23 -146 -64 -207 -105 -38 -24 -48 -36 -48 -58 0
-16 3 -28 6 -28 3 0 25 14 50 30 24 17 83 50 131 73 90 43 143 51 243 37 30
-4 35 -2 38 16 3 18 -6 23 -73 37 -89 20 -77 20 -140 -2z"/>
<path d="M1125 1083 c-90 -38 -195 -109 -195 -131 0 -32 10 -31 67 8 30 21 88
53 129 70 l75 31 91 -16 c113 -19 214 -53 321 -106 60 -31 77 -36 63 -21 -21
24 -144 90 -226 121 -57 23 -234 71 -254 71 -6 -1 -38 -12 -71 -27z"/>
<path d="M690 1086 c-54 -20 -160 -75 -207 -108 -35 -23 -43 -35 -43 -59 l0
-30 45 31 c24 17 88 52 142 78 102 49 131 54 231 39 52 -8 53 -7 50 15 -2 18
-13 25 -53 35 -66 15 -122 15 -165 -1z"/>
<path d="M1093 996 c-99 -47 -163 -93 -163 -116 0 -27 11 -25 66 11 70 48 183
92 229 91 99 -4 267 -53 387 -113 90 -44 104 -39 24 10 -117 71 -351 151 -436
151 -19 -1 -67 -16 -107 -34z"/>
<path d="M688 996 c-67 -24 -187 -84 -226 -114 -17 -13 -23 -26 -20 -45 l3
-26 65 41 c36 23 103 57 149 76 75 30 91 34 143 28 32 -3 70 -9 83 -12 21 -5
25 -2 25 14 0 27 -7 30 -89 46 -66 13 -74 12 -133 -8z"/>
<path d="M1093 926 c-99 -47 -163 -93 -163 -116 0 -28 11 -25 76 16 79 51 165
84 216 84 95 -1 265 -49 391 -111 89 -44 102 -38 23 10 -117 71 -351 151 -436
151 -19 -1 -67 -16 -107 -34z"/>
<path d="M670 896 c-36 -12 -102 -42 -147 -65 -69 -36 -83 -47 -83 -67 0 -13
2 -24 4 -24 2 0 43 20 92 45 158 81 235 96 352 68 17 -4 22 -1 22 15 0 23 -8
26 -94 41 -75 14 -68 14 -146 -13z"/>
<path d="M1160 880 c-103 -32 -230 -110 -230 -140 0 -11 1 -20 3 -20 1 0 56
27 121 60 82 41 131 60 156 60 96 0 308 -59 423 -117 74 -37 67 -20 -8 23 -88
48 -197 91 -314 120 -100 26 -112 27 -151 14z"/>
<path d="M665 806 c-38 -13 -105 -40 -147 -62 -68 -33 -78 -42 -78 -65 l0 -27
65 35 c36 19 102 48 148 65 76 28 88 30 170 24 82 -6 88 -5 85 11 -2 13 -19
21 -58 30 -80 16 -107 15 -185 -11z"/>
<path d="M1118 786 c-116 -41 -207 -101 -185 -122 4 -4 44 11 89 33 135 67
168 73 279 57 113 -17 175 -34 292 -81 49 -19 91 -33 93 -30 8 8 -109 65 -197
95 -77 27 -260 72 -291 72 -7 0 -43 -11 -80 -24z"/>
<path d="M650 711 c-125 -41 -204 -83 -208 -109 -2 -12 -1 -22 1 -22 3 0 39
16 81 35 136 62 207 79 303 71 77 -6 84 -5 81 11 -3 18 -32 27 -122 37 -40 4
-69 0 -136 -23z"/>
<path d="M1110 710 c-121 -42 -199 -94 -176 -117 3 -4 39 10 79 29 117 58 170
72 251 65 88 -8 235 -45 340 -86 44 -16 82 -29 84 -26 13 12 -164 85 -293 120
-163 44 -195 46 -285 15z"/>
<path d="M1089 627 c-101 -35 -159 -69 -159 -93 0 -18 -4 -19 81 20 129 59
178 69 280 56 96 -11 243 -47 328 -80 29 -12 56 -19 58 -16 14 14 -163 78
-302 111 -170 39 -178 39 -286 2z"/>
<path d="M680 629 c-38 -10 -107 -33 -152 -51 -66 -26 -84 -38 -86 -55 -2 -13
-1 -23 1 -23 3 0 36 13 73 29 140 59 208 74 305 68 74 -5 89 -3 89 9 0 18 -9
21 -92 32 -54 7 -82 5 -138 -9z"/>
<path d="M1100 556 c-107 -33 -170 -63 -170 -81 0 -20 11 -19 78 9 114 48 170
59 262 53 106 -8 199 -27 321 -66 101 -33 130 -34 56 -2 -111 48 -370 112
-445 110 -15 0 -61 -10 -102 -23z"/>
<path d="M645 530 c-118 -31 -205 -69 -205 -91 0 -23 -2 -23 62 2 139 55 180
64 296 64 95 0 112 2 110 15 -7 32 -159 38 -263 10z"/>
<path d="M1080 477 c-108 -34 -150 -54 -150 -71 0 -21 9 -20 65 4 92 40 205
62 275 55 121 -11 305 -50 400 -83 10 -3 12 -2 5 5 -31 32 -315 102 -440 109
-65 3 -94 0 -155 -19z"/>
<path d="M640 439 c-148 -38 -200 -59 -200 -80 0 -10 1 -19 3 -19 1 0 36 12
77 26 127 43 227 61 308 54 67 -5 94 1 78 17 -8 9 -100 21 -151 22 -22 0 -74
-9 -115 -20z"/>
<path d="M1131 414 c-81 -17 -189 -53 -196 -65 -16 -24 11 -23 92 4 151 50
306 47 550 -13 63 -15 111 -24 106 -19 -14 14 -184 59 -298 78 -167 29 -185
30 -254 15z"/>
<path d="M650 351 c-130 -28 -201 -51 -207 -67 -9 -24 -1 -24 67 -3 121 38
203 51 303 50 59 -1 97 3 97 9 0 26 -157 33 -260 11z"/>
<path d="M1112 335 c-140 -31 -197 -54 -178 -72 3 -3 38 4 78 15 138 40 197
46 320 33 95 -10 258 -38 333 -57 18 -4 18 -4 3 6 -28 17 -173 50 -313 71
-150 22 -159 22 -243 4z"/>
<path d="M570 244 c-130 -30 -130 -30 -130 -50 0 -11 5 -14 18 -9 9 4 67 18
127 33 86 20 134 25 218 24 59 -1 107 3 107 7 0 30 -202 27 -340 -5z"/>
<path d="M1060 250 c-47 -11 -95 -24 -108 -30 -26 -11 -20 -35 7 -25 9 4 57
16 106 27 138 31 235 26 575 -26 32 -5 32 -5 -8 9 -67 22 -277 55 -387 60 -77
4 -120 0 -185 -15z"/>
<path d="M1100 183 c-14 -2 -58 -11 -97 -19 -66 -14 -73 -18 -73 -40 l0 -24
385 0 c317 0 385 2 385 14 0 23 -360 77 -500 75 -41 -1 -86 -3 -100 -6z"/>
<path d="M660 173 c-48 -7 -185 -34 -202 -39 -10 -3 -18 -12 -18 -20 0 -12 38
-14 235 -14 l235 0 0 34 c0 30 -4 34 -31 40 -33 6 -176 6 -219 -1z"/>
</g>
</svg>
