<?xml version="1.0" encoding="utf-8"?><svg xmlns="http://www.w3.org/2000/svg" width="17.983" height="18.006" xmlns:v="https://vecta.io/nano"><path d="M.033 3.533c.036-.268.154-.519.337-.719l2.7-2.7q.315-.27.472.09l2.184 4.093a.59.59 0 0 1-.112.7l-.989.989a1.12 1.12 0 0 0-.315.7 3.43 3.43 0 0 0 .7 1.731c.41.634.869 1.236 1.371 1.8l.7.719.81.776c.512.445 1.056.851 1.629 1.214.517.408 1.134.668 1.787.753a.98.98 0 0 0 .719-.292l1.17-1.169c.165-.204.461-.244.674-.09l3.935 2.316a.33.33 0 0 1 .18.236c.016.096-.018.194-.09.259l-2.7 2.7a1.32 1.32 0 0 1-.719.337 5.44 5.44 0 0 1-2.485-.3c-.902-.298-1.763-.71-2.562-1.225q-1.18-.764-2.192-1.551-1.012-.787-1.622-1.363l-.582-.562q-.224-.224-.6-.618-.376-.394-1.292-1.551a22.58 22.58 0 0 1-1.6-2.259A13.18 13.18 0 0 1 .375 6.04C.062 5.244-.056 4.384.033 3.533z" fill="#fff"/></svg>