<?xml version="1.0" standalone="no"?>
<!DOCTYPE svg PUBLIC "-//W3C//DTD SVG 20010904//EN"
 "http://www.w3.org/TR/2001/REC-SVG-20010904/DTD/svg10.dtd">
<svg version="1.0" xmlns="http://www.w3.org/2000/svg"
 width="512.000000pt" height="512.000000pt" viewBox="0 0 512.000000 512.000000"
 preserveAspectRatio="xMidYMid meet">

<g transform="translate(0.000000,512.000000) scale(0.100000,-0.100000)"
fill="#ffffff" stroke="none">
<path d="M2495 5106 c-37 -17 -70 -52 -84 -89 -6 -16 -11 -95 -11 -177 0 -170
10 -154 -105 -165 -101 -10 -283 -50 -401 -90 -549 -183 -997 -574 -1249
-1090 -101 -208 -182 -475 -200 -665 -11 -121 8 -108 -179 -112 -180 -3 -192
-7 -240 -72 -29 -39 -29 -133 0 -172 48 -65 60 -69 240 -72 187 -4 168 9 179
-112 18 -190 99 -457 200 -665 253 -517 699 -906 1253 -1092 114 -38 293 -78
398 -88 112 -11 102 6 106 -180 3 -178 7 -191 72 -239 39 -29 133 -29 172 0
65 48 69 61 72 237 2 110 7 164 15 169 7 4 29 8 49 8 72 0 311 51 441 94 483
159 895 487 1163 926 150 246 263 574 289 836 11 112 -6 102 180 106 178 3
191 7 239 72 29 39 29 133 0 172 -48 65 -61 69 -239 72 -186 4 -169 -6 -180
106 -11 111 -52 290 -95 417 -184 540 -574 984 -1086 1235 -204 100 -475 181
-669 199 -115 12 -103 -8 -107 179 -3 179 -7 192 -70 239 -34 25 -113 32 -153
13z m-73 -973 c41 -73 148 -100 222 -54 57 36 76 83 76 194 l0 93 72 -8 c288
-35 591 -156 838 -336 391 -285 658 -731 724 -1206 l13 -96 -96 0 c-81 0 -102
-4 -135 -23 -109 -61 -106 -221 5 -277 30 -16 58 -20 132 -20 l94 0 -13 -96
c-110 -789 -749 -1428 -1538 -1538 l-96 -13 0 94 c0 74 -4 102 -20 132 -56
111 -216 114 -277 5 -19 -33 -23 -54 -23 -135 l0 -96 -62 9 c-360 47 -676 187
-957 423 -328 276 -568 719 -619 1143 l-8 72 93 0 c74 0 102 4 132 20 113 57
113 223 0 280 -30 16 -58 20 -132 20 l-93 0 8 72 c51 424 291 867 619 1143
248 208 535 346 834 403 61 12 126 23 145 24 l35 3 5 -100 c3 -68 11 -110 22
-132z"/>
<path d="M2438 3620 c-369 -46 -683 -275 -843 -613 -192 -407 -102 -894 223
-1209 321 -310 792 -392 1187 -204 238 112 409 283 520 519 259 548 2 1199
-568 1436 -147 61 -364 91 -519 71z m299 -335 c264 -61 478 -276 548 -550 24
-94 24 -256 0 -350 -65 -256 -247 -453 -493 -534 -412 -135 -856 114 -959 537
-21 88 -21 256 0 344 85 348 411 593 762 572 44 -3 108 -11 142 -19z"/>
</g>
</svg>
