<svg xmlns="http://www.w3.org/2000/svg" width="1014.726" height="774.14" viewBox="0 0 1014.726 774.14">
  <path id="Subtraction_1" data-name="Subtraction 1" d="M5139.3,2596.641h0l-583.682-5.192c-1.136-.829-28.266-20.686-68.269-53.129-23.756-19.266-47.249-39.073-69.826-58.869-28.219-24.743-55.079-49.539-79.833-73.7-63.008-61.5-112.913-119.292-148.329-171.779-10.236-15.17-19.381-30.094-27.18-44.357a385.7,385.7,0,0,1-20.634-43.665,257.1,257.1,0,0,1-12.8-42.344,190.688,190.688,0,0,1-3.055-20.48,159.334,159.334,0,0,1-.61-19.915c.529-15.583,1.728-30.759,3.562-45.105a392.471,392.471,0,0,1,7.246-40.327,322.685,322.685,0,0,1,10.619-35.792,274.034,274.034,0,0,1,13.683-31.5,242.708,242.708,0,0,1,16.435-27.455,225.661,225.661,0,0,1,18.877-23.653,220.734,220.734,0,0,1,21.009-20.1,226.855,226.855,0,0,1,22.83-16.781h900.382l-.428,774.139Z" transform="translate(-4125 -1822.5)" fill="#203835"/>
</svg>
