<svg xmlns="http://www.w3.org/2000/svg" width="390.142" height="385.363" viewBox="0 0 390.142 385.363">
  <path id="Union_1" data-name="Union 1" d="M5673,2149.363v-287h0v-40.289l.024-.009c1.1-.4,11.236-4.019,27.16-9.2,15.484-5.035,39.8-12.622,67.708-20.18,31.375-8.5,60.8-15.227,87.471-20,33.334-5.972,62.425-8.891,86.466-8.675,16.221.145,31.215.686,44.566,1.61,12.47.863,23.887,2.085,33.934,3.632a220.078,220.078,0,0,1,25.011,5.215,119.6,119.6,0,0,1,17.8,6.351v117.9H6063v250.641Z" transform="translate(-5673 -1764)" fill="#203835"/>
</svg>
